<?xml version="1.0" encoding="utf-8"?>
<!-- Generator: Adobe Illustrator 27.0.1, SVG Export Plug-In . SVG Version: 6.00 Build 0)  -->
<svg version="1.1" id="Layer_1" xmlns="http://www.w3.org/2000/svg" xmlns:xlink="http://www.w3.org/1999/xlink" x="0px" y="0px"
	 viewBox="0 0 62.4 40" style="enable-background:new 0 0 62.4 40;" xml:space="preserve">
<style type="text/css">
	.st0{fill:url(#SVGID_1_);}
</style>
<linearGradient id="SVGID_1_" gradientUnits="userSpaceOnUse" x1="64.4192" y1="54.306" x2="-16.6128" y2="-14.31" gradientTransform="matrix(1 0 0 -1 0 42)">
	<stop  offset="0" style="stop-color:#056EA3"/>
	<stop  offset="0.785" style="stop-color:#06B3C9"/>
	<stop  offset="1" style="stop-color:#06C6D3"/>
</linearGradient>
<path class="st0" d="M46.3,25.8c-0.5,0.4-1.1,0.7-1.6,1v-2c0.6,0.3,1.3,0.5,1.9,0.6C46.5,25.6,46.4,25.7,46.3,25.8z M22,29.8
	c-0.3-0.8-0.4-1.7-0.2-2.6c0.1-0.5,0.4-0.9,0.8-1.2c0.6-0.5,1.1-1.2,1.3-1.9c-0.7,0.5-1.4,1-2.1,1.5c-0.5,0.3-1,0.5-1.5,0.7v8.3
	c0,0,0,0,0.1-0.1C21.9,33.5,22.5,31.6,22,29.8z M54.1,17.2c-0.3,0-0.5,0.2-0.6,0.7c-0.1,0.5-0.2,1-0.4,1.5c-0.1,0.2-0.1,0.5-0.2,0.7
	l0.1,0l1.7-2.7C54.5,17.3,54.3,17.2,54.1,17.2z M61.3,17c0.4,0,0.7-0.1,1.1-0.3v1.2c-0.5,0.3-1.1,0.4-1.7,0.4
	c-0.7-0.1-1.4-0.2-2-0.4c-0.1,0-0.3,0-0.3,0c-0.4,0.6-0.8,1.2-1.3,1.7c1.2,0.7,2.7,0.9,4.1,0.6c0.4-0.1,0.9-0.3,1.2-0.6V24h-9.9v16
	h-7.8V29.8c0.2-0.1,0.4-0.2,0.6-0.4c1.2-0.9,2.4-1.8,3.5-2.8c0.4-0.3,0.6-0.7,0.5-1.2c-0.1-0.5-0.2-1-0.4-1.4
	c-0.1-0.1-0.2-0.2-0.3-0.3c-0.4-0.2-0.8-0.4-1.2-0.6c-0.4-0.2-0.5-0.5-0.4-0.9c0.1-0.4,0.3-0.8,0.5-1.2c0.4-0.9,0.5-1.8,0.2-2.7
	c-0.1-0.4-0.1-0.8-0.1-1.2c0.1-0.6,0.5-1.2,1-1.4c-0.1,0.3-0.2,0.6-0.2,0.9C48.5,17,48.6,17.6,49,18c0.4,0.6,0.4,1.2,0.2,1.9
	c-0.2,0.6-0.4,1.1-0.6,1.7c-0.2,0.5-0.1,0.8,0.4,1c0.7,0.2,1.4,0.5,2,0.7c0.7,0.2,1.4-0.1,1.7-0.6c0.2-0.3,0.4-0.7,0.6-1.1
	c0.4-0.9,1-1.6,1.8-2.1c1-0.6,1.7-1.5,2.2-2.5c-0.4-0.4-0.8-1-1-1.5h0.7c0.3,0.5,0.8,0.9,1.3,1.2C59.3,17,60.3,17.1,61.3,17L61.3,17
	z M50.4,27L50.4,27c-0.7,0.5-1.3,1-1.9,1.5c-0.8,0.6-1.7,1.2-2.6,1.8c-0.2,0.1-0.3,0.2-0.2,0.4c0.2,0.9,0.6,1.7,1.1,2.4
	c0.5-0.7,1-1.4,1.5-2.1c0.7-1.1,1.3-2.3,1.9-3.5C50.3,27.4,50.3,27.2,50.4,27z M16.3,26.6c-1.5-0.2-2.8-1.3-3.1-2.8
	c-0.2-1-0.1-2,0.3-2.8L10,0H0v40h7.1V24.5L9.8,40h7.6l2.5-13.6C18.8,26.8,17.5,26.9,16.3,26.6z M44.7,0H17l-3.1,20.3
	c0.8-1.2,2-2.1,3.3-2.8c1.3-0.7,2.7-1.3,4.1-1.9c0.5-0.2,0.8-0.5,1-1c0.8-2.3,2.5-3.4,4.7-4.1c0,0,0,0,0.1,0v0
	c-0.7,0.9-1.2,1.9-1.4,3c-0.3,1.6-1.6,2.7-3.2,2.8c-0.8,0.2-1.5,0.4-2.2,0.8c-1.5,0.7-2.9,1.6-4.1,2.7c-0.6,0.5-1.1,1.2-1.5,2
	c-0.4,0.9,0,2,0.9,2.5c0.9,0.5,2,0.6,2.9,0.3c0.3-0.1,0.7-0.2,1-0.3l0.1,0c1.5-0.6,3-1.5,4.2-2.6c1-0.9,2.1-1.7,3.3-2.3v13.1
	c-0.6,0.2-1.2,0.4-1.7,0.6c-1.8,0.9-3.1,2.5-3.5,4.5c-0.1,0.2-0.1,0.4-0.1,0.6c-0.1,0.3,0,0.7,0.2,1c0.2,0.3,0.3,0.6,0.5,0.9h1.2
	c-0.1-0.2-0.2-0.3-0.3-0.5c-0.3-0.4-0.4-1-0.2-1.5c0.3-1.8,1.4-3.4,3-4.3c0.1-0.1,0.2-0.1,0.3-0.1c-0.3,0.6-0.5,1.2-0.7,1.9
	c-0.2,0.8-0.4,1.6-0.5,2.4c0,0.2,0,0.4,0.1,0.5c0.3,0.5,0.6,1,0.8,1.6h8.8V24h7.7v-8.6h-7.7V7.3h9.9v1.2c1.8,0,3.6,0.4,5.3,1.1
	c0.9,0.3,1.7,0.7,2.5,1.1V7.3h9.9V0H44.7z"/>
</svg>
