<?xml version="1.0" encoding="utf-8"?>
<!-- Generator: Adobe Illustrator 27.0.1, SVG Export Plug-In . SVG Version: 6.00 Build 0)  -->
<svg version="1.1" id="Layer_1" xmlns="http://www.w3.org/2000/svg" xmlns:xlink="http://www.w3.org/1999/xlink" x="0px" y="0px"
	 viewBox="0 0 841.9 59.6" style="enable-background:new 0 0 841.9 59.6;" xml:space="preserve">
<style type="text/css">
	.st0{fill:#FFFFFF;}
	.st1{fill:#FFFFFF;stroke:#FFFFFF;stroke-miterlimit:10;}
</style>
<g id="uJPPKc_00000152263825907968386250000017556541108860489406_">
	<g>
		<path class="st0" d="M390,25.8c-1.4,1-2.7,1.9-3.9,2.8c-0.5,0.4-1,0.7-1.5,1c-3.2,2-5.8,0.4-7.1-2.1c-0.7-1.4-1-2.9-0.5-4.3
			c0.5-1.7,1.3-3.3,2.1-5c1.2,1.4,1.3,3.2,0.4,4.7c-0.2,0.4-0.5,0.7-0.7,1.1c-1,1.6-1,2.7,0.1,3.9c1,1.2,2.9,1.6,4.2,0.9
			c1.2-0.7,2.5-1.5,3.4-2.5c6-6.4,13.3-11,21-15.1c0.2-0.1,0.5-0.2,0.8-0.2c-0.6,0.7-1.2,1.4-1.8,2.1c0.1,0.1,0.1,0.2,0.2,0.2
			c0.2-0.2,0.5-0.3,0.7-0.5c1.7-1.9,3.4-3.8,5-5.7c3.1-3.5,6.8-6,11.4-7.1c2.7-0.7,5.2-0.3,7.6,0.9c6.8,3.5,12.9,8.1,18.2,13.7
			c0.7,0.8,1.2,1.8,1.8,2.7c0.5,0.8,1.1,1.4,2.1,1.6c1.4,0.2,1.7,1.3,2,2.5c0.8,3.1,3.3,4.6,6.4,4.1c0.9-0.2,1.9-0.3,2.8-0.5
			c0.1,0,0.3,0,0.5,0c-1.4,2.4-4.9,3.8-7.7,3c-1.4-0.4-2.7-1.1-3.9-1.8c-0.5-0.3-0.8-0.3-1.2,0.1c-3.4,3.1-7.1,6-10,9.7
			c-1.1,1.4-1.7,1.3-3.1,0.2c-2.2-1.7-3-3.8-2.1-6.6c0.4-1.3,0.5-2.6,0.7-4c-0.4,1.3-1.2,2-2.3,2.8c-0.9,0.6-1.6,1.7-2.1,2.4
			c3.3,4.6,6.4,8.9,9,13.6c-0.1,0.1-0.1,0.2-0.2,0.3c-1.7-0.1-3.3-0.2-5-0.4c-1.4-0.2-1.9-1.3-2.2-2.5c-0.9-3.7-3.1-6.1-6.8-6.9
			c-0.8-0.2-1.6-0.2-2.6-0.2c0.7-0.8,1.3-1.6,2-2.5c-4.5,2-5.7,8.1-2.6,11.4c0.9,0.9,1.7,1.9,2.5,2.8c0,0.1-0.1,0.2-0.1,0.3
			c-1.8,0.1-3.5,0.3-5.3,0.4c-0.9,0-1.3-0.8-1.4-1.6c-0.5-3.5-1-7.1-1.6-10.6c-0.1-0.4-0.1-0.8-0.2-1.2c-1.2,0.4-2.3,0.9-3.5,1.2
			c-1,0.2-2,0.4-3,0.3c-2-0.1-3.8,0.4-5.4,1.6c-1.9,1.4-3.7,2.9-5.8,4.6c1.1,0.9,2.2,1.8,3.3,2.4c1.8,1.1,3.8,1.9,5.6,3
			c1.1,0.7,2,1.6,3,2.4c0,0.1-0.1,0.3-0.1,0.4c-1.7,0.5-3.3,1-5,1.4c-0.8,0.2-1.4-0.3-1.7-1.1c-0.3-1.1-1.1-1.8-2-2.4
			c-2.6-1.5-5.2-3-7.9-4.6c-0.3-0.2-0.6-0.4-1-0.6c2.2-1.6,4.3-3.2,6.3-4.7c0-0.1-0.1-0.2-0.1-0.2c-0.2,0.1-0.4,0.1-0.6,0.3
			c-3.9,2.5-7.8,4.9-11.7,7.4c-1.8,1.2-3.3,2.8-4.2,4.8c-1,2.4-0.6,4.1,1.5,5.7c0.9,0.7,1.7,1.5,2.6,2.2c-0.1,0.2-0.1,0.3-0.2,0.5
			c-1.5,0.6-3,1.3-4.5,1.8c-0.9,0.3-1.6-0.1-1.9-1c-1.6-4.6-1.7-9.1,0.8-13.5c1-1.9,2.3-3.6,3.6-5.3c1.3-1.8,2.2-3.7,2.3-5.9
			C389.7,31.4,389.8,28.7,390,25.8z"/>
	</g>
</g>
<line class="st1" x1="0" y1="29.8" x2="337.4" y2="29.8"/>
<line class="st1" x1="504.5" y1="29.8" x2="841.9" y2="29.8"/>
</svg>
