<?xml version="1.0" encoding="utf-8"?>
<!-- Generator: Adobe Illustrator 27.0.1, SVG Export Plug-In . SVG Version: 6.00 Build 0)  -->
<svg version="1.1" id="Layer_1" xmlns="http://www.w3.org/2000/svg" xmlns:xlink="http://www.w3.org/1999/xlink" x="0px" y="0px"
	 viewBox="0 0 2500 469" style="enable-background:new 0 0 2500 469;" xml:space="preserve">
<style type="text/css">
	.st0{fill:#00B67A;}
	.st1{fill:#FFFFFF;}
</style>
<g>
	<g>
		<path class="st0" d="M0,0.1h468.8v468.8H0V0.1z M507.8,0.1h468.8v468.8H507.8V0.1z M1015.6,0.1h468.8v468.8h-468.8V0.1z
			 M1523.4,0.1h468.8v468.8h-468.8V0.1z M2031.2,0.1H2500v468.8h-468.8V0.1z"/>
	</g>
	<path class="st1" d="M234.4,316l71.3-18.1l29.8,91.8L234.4,316z M398.4,197.4H272.9L234.4,79.2l-38.6,118.2H70.3l101.6,73.2
		l-38.6,118.2l101.6-73.2l62.5-44.9L398.4,197.4z M742.2,316l71.3-18.1l29.8,91.8L742.2,316z M906.2,197.4H780.8L742.2,79.2
		l-38.6,118.2H578.1l101.6,73.2l-38.6,118.2l101.6-73.2l62.5-44.9L906.2,197.4z M1250,316l71.3-18.1l29.8,91.8L1250,316z
		 M1414.1,197.4h-125.5L1250,79.2l-38.6,118.2h-125.5l101.6,73.2l-38.6,118.2l101.6-73.2l62.5-44.9L1414.1,197.4z M1757.8,316
		l71.3-18.1l29.8,91.8L1757.8,316z M1921.9,197.4h-125.5l-38.6-118.2l-38.6,118.2h-125.5l101.6,73.2l-38.6,118.2l101.6-73.2
		l62.5-44.9L1921.9,197.4z M2265.6,316l71.3-18.1l29.8,91.8L2265.6,316z M2429.7,197.4h-125.5l-38.6-118.2l-38.6,118.2h-125.5
		l101.6,73.2l-38.6,118.2l101.6-73.2l62.5-44.9L2429.7,197.4z"/>
</g>
</svg>
