<?xml version="1.0" encoding="utf-8"?>
<!-- Generator: Adobe Illustrator 27.0.1, SVG Export Plug-In . SVG Version: 6.00 Build 0)  -->
<svg version="1.1" id="Layer_1" xmlns="http://www.w3.org/2000/svg" xmlns:xlink="http://www.w3.org/1999/xlink" x="0px" y="0px"
	 viewBox="0 0 841.9 493.2" style="enable-background:new 0 0 841.9 493.2;" xml:space="preserve">
<style type="text/css">
	.st0{fill:#FFFFFF;}
	.st1{fill:#00B67A;}
</style>
<g id="V4Xj2M_00000061462052509819547990000001816459625608376732_">
	<g>
		<g>
			<path class="st0" d="M17.3,399.4v-43H0.7v-6.8H41v6.8H24.5v43H17.3z"/>
			<path class="st0" d="M43.1,399.4V362h6.4v9.1l-0.9-1.2c0.5-1.2,1.1-2.3,1.8-3.3s1.6-1.8,2.6-2.5c0.9-0.7,2-1.2,3.2-1.6
				s2.4-0.6,3.6-0.7c1.2-0.1,2.4,0,3.5,0.2v6.8c-1.2-0.3-2.6-0.4-4.1-0.3s-2.9,0.6-4.1,1.4c-1.2,0.8-2.1,1.7-2.8,2.8
				c-0.7,1.1-1.2,2.3-1.5,3.6c-0.3,1.3-0.4,2.7-0.4,4.2v18.8h-7.3V399.4z"/>
			<path class="st0" d="M83.9,400.4c-2.6,0-4.7-0.4-6.5-1.2s-3.2-1.9-4.3-3.3c-1.1-1.3-1.9-2.8-2.5-4.4s-1-3.1-1.2-4.7
				s-0.3-2.9-0.3-4V362h7.3v18.4c0,1.5,0.1,2.9,0.4,4.5s0.7,3,1.4,4.3c0.7,1.3,1.6,2.4,2.9,3.2c1.2,0.8,2.8,1.2,4.8,1.2
				c1.3,0,2.5-0.2,3.7-0.6s2.2-1.1,3-2.1c0.9-0.9,1.5-2.2,2-3.7s0.7-3.4,0.7-5.6l4.5,1.7c0,3.4-0.6,6.4-1.9,9s-3.1,4.6-5.5,6.1
				C90.2,399.6,87.3,400.4,83.9,400.4z M96.3,399.4v-10.8h-0.9V362h7.3v37.3h-6.4V399.4z"/>
			<path class="st0" d="M126.7,400.4c-4.5,0-8.2-1-11.1-3s-4.6-4.8-5.3-8.5l7.4-1.1c0.5,1.9,1.5,3.5,3.2,4.6s3.8,1.7,6.2,1.7
				c2.3,0,4-0.5,5.3-1.4s1.9-2.2,1.9-3.8c0-0.9-0.2-1.7-0.7-2.3c-0.4-0.6-1.4-1.1-2.8-1.7c-1.4-0.5-3.6-1.2-6.5-2
				c-3.2-0.8-5.7-1.7-7.6-2.7s-3.2-2.1-4-3.4s-1.2-2.8-1.2-4.7c0-2.3,0.6-4.2,1.8-5.9c1.2-1.7,2.9-3,5.1-3.9s4.7-1.4,7.7-1.4
				c2.9,0,5.4,0.4,7.6,1.3c2.2,0.9,4,2.2,5.4,3.8c1.4,1.6,2.2,3.6,2.5,5.8l-7.4,1.3c-0.3-1.8-1.1-3.2-2.5-4.3
				c-1.4-1-3.3-1.6-5.6-1.7c-2.2-0.1-4,0.3-5.3,1.1c-1.4,0.8-2,1.9-2,3.4c0,0.8,0.3,1.5,0.8,2.1s1.5,1.1,3,1.7
				c1.5,0.5,3.7,1.2,6.6,1.9c3.1,0.8,5.6,1.7,7.5,2.7c1.8,1,3.2,2.1,4,3.5s1.2,3,1.2,4.9c0,3.7-1.3,6.6-4,8.7
				S131.4,400.4,126.7,400.4z"/>
			<path class="st0" d="M145.3,367.8V362h25.5v5.8H145.3z M170.8,399.4c-2.4,0.5-4.7,0.7-6.9,0.6c-2.3-0.1-4.3-0.5-6.1-1.3
				s-3.1-2.1-4-3.8c-0.8-1.5-1.2-3.1-1.3-4.7s-0.1-3.4-0.1-5.4v-33h7.3v32.7c0,1.5,0,2.8,0.1,3.9s0.3,2,0.7,2.8
				c0.8,1.4,2.1,2.2,4,2.4c1.8,0.2,3.9,0.1,6.4-0.2L170.8,399.4L170.8,399.4z"/>
			<path class="st0" d="M196.7,400.4c-3.6,0-6.8-0.6-9.7-1.8c-2.9-1.2-5.2-3-7.1-5.3c-1.9-2.3-3.1-5-3.6-8.2l7.5-1.1
				c0.8,3,2.4,5.4,4.8,7.1s5.2,2.5,8.5,2.5c2,0,3.8-0.3,5.5-1c1.7-0.6,3-1.5,4.1-2.7c1-1.2,1.5-2.6,1.5-4.3c0-0.9-0.2-1.7-0.5-2.4
				c-0.3-0.7-0.7-1.3-1.3-1.8c-0.5-0.5-1.2-1-2-1.3c-0.8-0.4-1.6-0.7-2.5-1l-12.8-3.8c-1.2-0.4-2.5-0.8-3.8-1.4s-2.5-1.4-3.5-2.3
				c-1.1-1-1.9-2.1-2.6-3.6c-0.7-1.4-1-3.1-1-5.2c0-3.1,0.8-5.7,2.4-7.8c1.6-2.1,3.7-3.7,6.4-4.8s5.7-1.6,9.1-1.6
				c3.4,0,6.4,0.6,9,1.8c2.7,1.2,4.9,2.8,6.6,5c1.8,2.2,3,4.8,3.6,7.8l-7.7,1.3c-0.3-1.9-1.1-3.5-2.2-4.8s-2.5-2.4-4.1-3.1
				s-3.4-1.1-5.3-1.1c-1.8,0-3.5,0.2-5.1,0.8c-1.5,0.6-2.8,1.4-3.7,2.5s-1.4,2.3-1.4,3.7c0,1.4,0.4,2.5,1.2,3.4s1.8,1.5,3,2
				s2.4,0.9,3.5,1.2l9.2,2.6c1.2,0.3,2.5,0.8,3.9,1.3c1.5,0.5,2.9,1.3,4.3,2.3c1.4,1,2.5,2.3,3.4,3.9s1.3,3.6,1.3,6
				c0,2.5-0.5,4.7-1.5,6.6s-2.4,3.5-4.2,4.8s-3.8,2.2-6.1,2.9C201.7,400.1,199.3,400.4,196.7,400.4z"/>
			<path class="st0" d="M239.1,400.4c-3.8,0-7.1-0.9-9.8-2.6s-4.7-4-6.1-7s-2.1-6.3-2.2-10.1c0-3.8,0.8-7.3,2.2-10.2
				c1.5-3,3.5-5.3,6.2-7s5.9-2.5,9.7-2.5c4.1,0,7.6,1,10.5,3s4.8,4.8,5.7,8.3l-7.2,2.1c-0.7-2.1-1.9-3.7-3.5-4.9
				c-1.6-1.2-3.5-1.7-5.6-1.7c-2.4,0-4.3,0.6-5.8,1.7s-2.7,2.6-3.4,4.6c-0.7,1.9-1.1,4.1-1.1,6.6c0,3.8,0.9,7,2.6,9.3
				c1.7,2.4,4.3,3.6,7.7,3.6c2.3,0,4.2-0.5,5.7-1.6c1.4-1.1,2.5-2.6,3.3-4.6l7.3,1.7c-1.2,3.6-3.2,6.4-6.1,8.4
				C246.6,399.4,243.1,400.4,239.1,400.4z"/>
			<path class="st0" d="M277.7,400.4c-3.7,0-7-0.8-9.7-2.5s-4.9-4-6.3-7s-2.2-6.4-2.2-10.3s0.8-7.3,2.3-10.3s3.7-5.3,6.4-6.9
				c2.7-1.6,5.9-2.5,9.6-2.5s7,0.8,9.7,2.5s4.9,4,6.4,6.9c1.5,3,2.2,6.4,2.2,10.2c0,3.9-0.8,7.3-2.3,10.3s-3.6,5.3-6.4,7
				C284.6,399.6,281.4,400.4,277.7,400.4z M277.7,393.6c3.6,0,6.2-1.2,8-3.6s2.6-5.5,2.6-9.3c0-3.9-0.9-7-2.7-9.4
				c-1.8-2.3-4.4-3.5-8-3.5c-2.4,0-4.4,0.5-6,1.6s-2.7,2.6-3.5,4.5s-1.1,4.2-1.1,6.7c0,3.9,0.9,7.1,2.7,9.4
				C271.5,392.4,274.2,393.6,277.7,393.6z"/>
			<path class="st0" d="M303.6,399.4V362h6.4v9.1l-0.9-1.2c0.5-1.2,1.1-2.3,1.8-3.3c0.7-1,1.6-1.8,2.6-2.5c0.9-0.7,2-1.2,3.2-1.6
				s2.4-0.6,3.6-0.7s2.4,0,3.5,0.2v6.8c-1.2-0.3-2.6-0.4-4.1-0.3s-2.9,0.6-4.1,1.4s-2.1,1.7-2.8,2.8c-0.7,1.1-1.2,2.3-1.5,3.6
				c-0.3,1.3-0.4,2.7-0.4,4.2v18.8h-7.3V399.4z"/>
			<path class="st0" d="M346.2,400.4c-3.7,0-7-0.8-9.8-2.4s-5-3.9-6.5-6.8s-2.3-6.3-2.3-10.1c0-4.1,0.8-7.6,2.3-10.6s3.7-5.3,6.4-7
				s5.9-2.5,9.6-2.5c3.8,0,7,0.9,9.7,2.6c2.7,1.8,4.7,4.3,6,7.5s1.9,7.1,1.6,11.6H356v-2.6c0-4.3-0.9-7.5-2.5-9.6s-4-3.1-7.3-3.1
				c-3.6,0-6.3,1.1-8.2,3.4c-1.8,2.3-2.7,5.6-2.7,9.9c0,4.1,0.9,7.3,2.7,9.5c1.8,2.2,4.4,3.4,7.9,3.4c2.3,0,4.2-0.5,5.9-1.5
				c1.6-1,2.9-2.5,3.9-4.4l7.1,2.2c-1.5,3.3-3.7,5.9-6.6,7.8C353.1,399.5,349.8,400.4,346.2,400.4z M332.9,382.7v-5.6h26.7v5.6
				H332.9z"/>
			<path class="st0" d="M405,399.4v-7.7h-21.6v-8.8l15.7-33.3h10.8l-15.7,33.3H405v-12.4h9.5v12.4h4.4v8.8h-4.4v7.7H405z"/>
			<path class="st0" d="M427.4,399.4V390h9.4v9.4H427.4z"/>
			<path class="st0" d="M464,348.6c3.3,0,6.3,0.8,8.9,2.3s4.7,3.7,6.2,6.4s2.3,5.9,2.3,9.6v14.5c0,3.9-0.8,7.3-2.3,10.1
				c-1.5,2.8-3.7,5-6.4,6.6c-2.8,1.5-6,2.3-9.8,2.3c-2.4,0-4.7-0.4-6.9-1.1c-2.2-0.7-4.2-1.9-6-3.6l6.7-6.7c0.8,0.8,1.8,1.5,2.9,1.9
				c1.1,0.5,2.2,0.7,3.4,0.7c1.8,0,3.4-0.4,4.7-1.3c1.3-0.8,2.4-1.9,3.1-3.3c0.7-1.3,1.1-2.8,1.1-4.3v-7.4l1.6,1.7
				c-1.4,1.5-3.1,2.6-5,3.3s-3.8,1.2-5.8,1.2c-3.1,0-5.9-0.7-8.3-2.1s-4.3-3.3-5.6-5.8s-2-5.2-2-8.4c0-3.1,0.8-6,2.4-8.5
				s3.7-4.5,6.3-6C457.9,349.4,460.8,348.6,464,348.6z M464,357.6c-1.4,0-2.7,0.3-3.9,1s-2.1,1.6-2.8,2.8s-1.1,2.5-1.1,3.9
				s0.3,2.7,1,3.9c0.7,1.2,1.6,2.1,2.8,2.8c1.2,0.7,2.5,1.1,3.9,1.1s2.7-0.4,3.9-1.1c1.2-0.7,2.1-1.6,2.8-2.8
				c0.7-1.2,1.1-2.5,1.1-3.9s-0.3-2.7-1-3.8s-1.6-2.1-2.8-2.8S465.4,357.6,464,357.6z"/>
			<path class="st0" d="M21.5,483.4c-3.4,0-6.4-0.7-9-2.1s-4.7-3.3-6.2-5.7s-2.2-5.2-2.2-8.2c0-2.6,0.6-5.1,1.8-7.4s2.9-4.2,5.1-5.7
				l-0.2,2.9c-1.7-1.6-3-3.4-4-5.2c-1-1.8-1.4-3.9-1.4-6.2c0-2.9,0.7-5.4,2.1-7.5s3.3-3.8,5.7-5s5.2-1.8,8.3-1.8s5.9,0.6,8.3,1.8
				c2.4,1.2,4.3,2.9,5.7,5s2.1,4.7,2.1,7.5c0,2.3-0.4,4.3-1.3,6.1s-2.3,3.6-4.1,5.3v-2.9c2.2,1.4,3.9,3.2,5.1,5.6
				c1.2,2.4,1.8,4.8,1.8,7.5c0,3.1-0.7,5.8-2.2,8.2s-3.6,4.3-6.2,5.7C27.9,482.7,24.9,483.4,21.5,483.4z M21.5,474.5
				c2.2,0,4-0.6,5.4-1.8c1.4-1.2,2.1-3,2.1-5.3s-0.7-4.1-2.1-5.3c-1.4-1.2-3.2-1.9-5.4-1.9s-4,0.6-5.4,1.9c-1.4,1.2-2,3-2,5.3
				c0,2.4,0.7,4.1,2,5.3C17.5,473.9,19.3,474.5,21.5,474.5z M21.5,451.3c1.8,0,3.3-0.4,4.4-1.3s1.7-2.3,1.7-4.1s-0.6-3.3-1.7-4.2
				c-1.1-0.9-2.6-1.4-4.4-1.4s-3.3,0.5-4.4,1.4s-1.7,2.3-1.7,4.2s0.6,3.2,1.7,4.1S19.7,451.3,21.5,451.3z"/>
			<path class="st0" d="M47.2,491.7l0.6-3.9c1.1,0.1,2-0.1,2.7-0.5c0.7-0.5,1.2-1.1,1.4-1.9c0.3-0.8,0.3-1.8,0.2-2.9h-4.8v-9.4h9.4
				v9.4c0,3.3-0.8,5.8-2.3,7.5C52.8,491.6,50.4,492.2,47.2,491.7z"/>
			<path class="st0" d="M85.8,431.6c3.3,0,6.3,0.8,8.9,2.3s4.7,3.7,6.2,6.4c1.5,2.8,2.3,5.9,2.3,9.6v14.5c0,3.9-0.8,7.3-2.3,10.1
				c-1.5,2.8-3.7,5-6.4,6.6c-2.8,1.5-6,2.3-9.8,2.3c-2.4,0-4.7-0.4-6.9-1.1c-2.2-0.7-4.2-1.9-6-3.6l6.7-6.7c0.8,0.8,1.8,1.5,2.9,1.9
				s2.2,0.7,3.4,0.7c1.8,0,3.4-0.4,4.7-1.3c1.3-0.8,2.4-1.9,3.1-3.3s1.1-2.8,1.1-4.3v-7.4l1.6,1.7c-1.4,1.5-3.1,2.6-5,3.3
				s-3.8,1.2-5.8,1.2c-3.1,0-5.9-0.7-8.3-2.1s-4.3-3.3-5.6-5.8s-2-5.2-2-8.4c0-3.1,0.8-6,2.4-8.5s3.7-4.5,6.3-6
				C79.7,432.3,82.6,431.6,85.8,431.6z M85.8,440.6c-1.4,0-2.7,0.3-3.9,1c-1.2,0.7-2.1,1.6-2.8,2.8s-1.1,2.5-1.1,3.9s0.3,2.7,1,3.9
				c0.7,1.2,1.6,2.1,2.8,2.8c1.2,0.7,2.5,1.1,3.9,1.1s2.7-0.4,3.9-1.1c1.2-0.7,2.1-1.6,2.8-2.8c0.7-1.2,1.1-2.5,1.1-3.9
				s-0.3-2.7-1-3.8c-0.7-1.2-1.6-2.1-2.8-2.8C88.5,440.9,87.2,440.6,85.8,440.6z"/>
			<path class="st0" d="M127.6,483.4c-2.5,0-4.9-0.5-7.1-1.6c-2.2-1-4.1-2.5-5.7-4.3s-2.7-4-3.4-6.4l9.1-2.4c0.3,1.2,0.8,2.2,1.6,3
				c0.8,0.9,1.7,1.5,2.7,2s2.1,0.7,3.2,0.7c1.4,0,2.7-0.3,3.9-1s2.1-1.6,2.8-2.8c0.7-1.2,1.1-2.5,1.1-3.9s-0.4-2.7-1.1-3.9
				c-0.7-1.2-1.6-2.1-2.8-2.8c-1.2-0.7-2.5-1-3.9-1c-1.8,0-3.2,0.3-4.3,0.9s-1.9,1.1-2.5,1.7l-8-2.4l1.5-26.5h27.2v8.8h-22l3.3-3.1
				l-1,17.1l-1.6-1.9c1.2-1,2.7-1.8,4.3-2.2c1.6-0.5,3.1-0.7,4.5-0.7c3.1,0,5.9,0.7,8.3,2.1c2.4,1.4,4.3,3.3,5.6,5.7
				c1.3,2.4,2,5.2,2,8.4c0,3.1-0.8,6-2.5,8.5c-1.6,2.5-3.8,4.5-6.5,6C133.6,482.6,130.7,483.4,127.6,483.4z"/>
			<path class="st0" d="M170.2,483.4c-3.4,0-6.4-0.7-9-2.1s-4.7-3.3-6.2-5.7s-2.2-5.2-2.2-8.2c0-2.6,0.6-5.1,1.8-7.4
				s2.9-4.2,5.1-5.7l-0.2,2.9c-1.7-1.6-3-3.4-4-5.2c-1-1.8-1.4-3.9-1.4-6.2c0-2.9,0.7-5.4,2.1-7.5c1.4-2.1,3.3-3.8,5.7-5
				s5.2-1.8,8.3-1.8s5.9,0.6,8.3,1.8c2.4,1.2,4.3,2.9,5.7,5s2.1,4.7,2.1,7.5c0,2.3-0.4,4.3-1.3,6.1s-2.3,3.6-4.1,5.3v-2.9
				c2.2,1.4,3.9,3.2,5.1,5.6c1.2,2.4,1.8,4.8,1.8,7.5c0,3.1-0.7,5.8-2.2,8.2s-3.6,4.3-6.2,5.7C176.6,482.7,173.6,483.4,170.2,483.4z
				 M170.2,474.5c2.2,0,4-0.6,5.4-1.8c1.4-1.2,2.1-3,2.1-5.3s-0.7-4.1-2.1-5.3c-1.4-1.2-3.2-1.9-5.4-1.9s-4,0.6-5.4,1.9
				c-1.4,1.2-2,3-2,5.3c0,2.4,0.7,4.1,2,5.3C166.2,473.9,168,474.5,170.2,474.5z M170.2,451.3c1.8,0,3.3-0.4,4.4-1.3
				c1.1-0.9,1.7-2.3,1.7-4.1s-0.6-3.3-1.7-4.2c-1.1-0.9-2.6-1.4-4.4-1.4c-1.8,0-3.3,0.5-4.4,1.4c-1.1,0.9-1.7,2.3-1.7,4.2
				s0.6,3.2,1.7,4.1S168.4,451.3,170.2,451.3z"/>
			<path class="st0" d="M210.4,482.4V445h6.4v9.1l-0.9-1.2c0.5-1.2,1.1-2.3,1.8-3.3s1.6-1.8,2.6-2.5c0.9-0.7,2-1.2,3.2-1.6
				s2.4-0.6,3.6-0.7c1.2-0.1,2.4,0,3.5,0.2v6.8c-1.2-0.3-2.6-0.4-4.1-0.3s-2.9,0.6-4.1,1.4c-1.2,0.8-2.1,1.7-2.8,2.8
				c-0.7,1.1-1.2,2.3-1.5,3.6c-0.3,1.3-0.4,2.7-0.4,4.2v18.8h-7.3V482.4z"/>
			<path class="st0" d="M253,483.4c-3.7,0-7-0.8-9.8-2.4s-5-3.9-6.5-6.8s-2.3-6.3-2.3-10.1c0-4.1,0.8-7.6,2.3-10.6s3.7-5.3,6.4-7
				s5.9-2.5,9.6-2.5c3.8,0,7,0.9,9.7,2.6c2.7,1.8,4.7,4.3,6,7.5s1.9,7.1,1.6,11.6h-7.2v-2.6c0-4.3-0.9-7.5-2.5-9.6s-4-3.1-7.3-3.1
				c-3.6,0-6.3,1.1-8.2,3.4c-1.8,2.3-2.7,5.6-2.7,9.9c0,4.1,0.9,7.3,2.7,9.5s4.4,3.4,7.9,3.4c2.3,0,4.2-0.5,5.9-1.5
				c1.6-1,2.9-2.5,3.9-4.4l7.1,2.2c-1.5,3.3-3.7,5.9-6.6,7.8C259.9,482.5,256.7,483.4,253,483.4z M239.7,465.7v-5.6h26.7v5.6H239.7z
				"/>
			<path class="st0" d="M286.4,482.4L272.9,445h7.3l9.9,28.3L300,445h7.3l-13.6,37.3h-7.3V482.4z"/>
			<path class="st0" d="M314.2,438.9v-7h7.2v7H314.2z M314.2,482.4V445h7.2v37.3h-7.2V482.4z"/>
			<path class="st0" d="M348.4,483.4c-3.7,0-7-0.8-9.8-2.4s-5-3.9-6.5-6.8s-2.3-6.3-2.3-10.1c0-4.1,0.8-7.6,2.3-10.6s3.7-5.3,6.4-7
				s5.9-2.5,9.6-2.5c3.8,0,7,0.9,9.7,2.6c2.7,1.8,4.7,4.3,6,7.5s1.9,7.1,1.6,11.6h-7.2v-2.6c0-4.3-0.9-7.5-2.5-9.6s-4-3.1-7.3-3.1
				c-3.6,0-6.3,1.1-8.2,3.4c-1.8,2.3-2.7,5.6-2.7,9.9c0,4.1,0.9,7.3,2.7,9.5c1.8,2.2,4.4,3.4,7.9,3.4c2.3,0,4.2-0.5,5.9-1.5
				c1.6-1,2.9-2.5,3.9-4.4l7.1,2.2c-1.5,3.3-3.7,5.9-6.6,7.8C355.3,482.5,352,483.4,348.4,483.4z M335.1,465.7v-5.6h26.7v5.6H335.1z
				"/>
			<path class="st0" d="M379.7,482.4L368.2,445h7.2l7.8,25.6l7.9-25.6h6.2l7.9,25.6L413,445h7.1l-11.4,37.3h-5.8l-8.7-27l-8.7,27
				h-5.8V482.4z"/>
			<path class="st0" d="M439.3,483.4c-4.5,0-8.2-1-11.1-3s-4.6-4.8-5.3-8.5l7.4-1.1c0.5,1.9,1.5,3.5,3.2,4.6s3.8,1.7,6.2,1.7
				c2.3,0,4-0.5,5.3-1.4s1.9-2.2,1.9-3.8c0-0.9-0.2-1.7-0.7-2.3c-0.5-0.6-1.4-1.1-2.8-1.7c-1.4-0.5-3.6-1.2-6.5-2
				c-3.2-0.8-5.7-1.7-7.6-2.7s-3.2-2.1-4-3.4s-1.2-2.8-1.2-4.7c0-2.3,0.6-4.2,1.8-5.9c1.2-1.7,2.9-3,5.1-3.9s4.7-1.4,7.7-1.4
				c2.9,0,5.4,0.4,7.6,1.3s4,2.2,5.4,3.8c1.4,1.6,2.2,3.6,2.5,5.8l-7.4,1.3c-0.3-1.8-1.1-3.2-2.5-4.3s-3.3-1.6-5.6-1.7
				c-2.2-0.1-4,0.3-5.3,1.1c-1.4,0.8-2,1.9-2,3.4c0,0.8,0.3,1.5,0.8,2.1s1.5,1.1,3,1.7c1.5,0.5,3.7,1.2,6.6,1.9
				c3.1,0.8,5.6,1.7,7.5,2.7c1.8,1,3.2,2.1,4,3.5s1.2,3,1.2,4.9c0,3.7-1.3,6.6-4,8.7C447.7,482.3,444,483.4,439.3,483.4z"/>
		</g>
		<path class="st0" d="M133.8,43.2h50.2v9.4h-19.8v52.7h-10.8V52.6h-19.7L133.8,43.2z M181.9,60.3h9.3V69h0.2
			c0.3-1.2,0.9-2.4,1.7-3.6c0.8-1.2,1.8-2.2,3.1-3.1c1.2-1,2.5-1.7,4-2.3c1.4-0.6,2.9-0.9,4.4-0.9c1.2,0,2,0.1,2.4,0.1
			c0.4,0.1,0.9,0.2,1.3,0.2v9.5c-0.7-0.2-1.4-0.2-2.2-0.3c-0.7-0.1-1.4-0.2-2.2-0.2c-1.7,0-3.2,0.3-4.7,1c-1.5,0.7-2.7,1.7-3.9,2.9
			c-1.1,1.3-2,2.9-2.6,4.8s-1,4.1-1,6.6V105h-9.9L181.9,60.3z M253.8,105.3H244V99h-0.2c-1.2,2.3-3.1,4.1-5.5,5.5
			c-2.4,1.4-4.9,2.1-7.4,2.1c-5.9,0-10.2-1.4-12.8-4.4c-2.6-2.9-4-7.4-4-13.2V60.3h9.9v27.6c0,4,0.7,6.8,2.3,8.4
			c1.5,1.7,3.6,2.5,6.4,2.5c2.1,0,3.8-0.3,5.2-1c1.4-0.7,2.6-1.5,3.4-2.6c0.9-1.1,1.5-2.4,1.9-3.9c0.4-1.5,0.6-3.1,0.6-4.9V60.3h9.9
			L253.8,105.3L253.8,105.3z M270.6,90.9c0.3,2.9,1.4,4.9,3.3,6.1c1.9,1.2,4.2,1.7,6.9,1.7c0.9,0,2-0.1,3.1-0.2
			c1.2-0.2,2.3-0.4,3.3-0.8c1.1-0.4,1.9-1,2.6-1.8c0.7-0.8,1-1.8,0.9-3.1c-0.1-1.2-0.5-2.3-1.4-3.1c-0.9-0.8-2-1.4-3.3-2
			c-1.3-0.5-2.9-0.9-4.6-1.2c-1.7-0.3-3.5-0.7-5.3-1.2c-1.8-0.4-3.6-0.9-5.4-1.5c-1.7-0.6-3.2-1.3-4.6-2.4c-1.3-1-2.5-2.2-3.2-3.8
			c-0.8-1.6-1.2-3.4-1.2-5.7c0-2.5,0.6-4.5,1.8-6.1c1.2-1.7,2.7-3,4.6-4c1.8-1,3.9-1.7,6.1-2.2c2.2-0.4,4.4-0.6,6.4-0.6
			c2.3,0,4.6,0.2,6.6,0.7c2.1,0.5,4.1,1.2,5.7,2.4c1.7,1.1,3.1,2.6,4.2,4.3c1.2,1.7,1.8,3.9,2.2,6.4h-10.3c-0.5-2.4-1.6-4-3.2-4.8
			c-1.7-0.8-3.6-1.2-5.9-1.2c-0.7,0-1.6,0.1-2.5,0.2c-1,0.2-1.8,0.3-2.7,0.7c-0.8,0.3-1.6,0.8-2.2,1.4c-0.6,0.6-0.9,1.4-0.9,2.4
			c0,1.2,0.4,2.2,1.2,2.9c0.8,0.7,1.9,1.3,3.3,1.9c1.3,0.5,2.9,0.9,4.6,1.2c1.7,0.3,3.6,0.7,5.4,1.2c1.8,0.4,3.6,0.9,5.3,1.5
			c1.7,0.6,3.3,1.3,4.6,2.4c1.3,1,2.5,2.2,3.3,3.7s1.2,3.4,1.2,5.5c0,2.6-0.6,4.9-1.8,6.8c-1.2,1.8-2.8,3.4-4.7,4.6
			c-1.9,1.2-4.1,2-6.5,2.6c-2.4,0.5-4.7,0.8-7,0.8c-2.8,0-5.5-0.3-7.9-1c-2.4-0.7-4.6-1.7-6.3-2.9c-1.7-1.3-3.1-2.9-4.1-4.9
			c-1-1.9-1.6-4.2-1.7-7L270.6,90.9L270.6,90.9L270.6,90.9z M303.3,60.3h7.5V46.8h9.9v13.5h8.9v7.4h-8.9v24c0,1.1,0.1,1.9,0.2,2.7
			c0.1,0.7,0.3,1.4,0.6,1.9c0.3,0.5,0.8,0.9,1.4,1.2c0.7,0.2,1.5,0.4,2.6,0.4c0.7,0,1.4,0,2.1-0.1c0.7-0.1,1.4-0.2,2.1-0.3v7.7
			c-1.1,0.2-2.2,0.2-3.2,0.3c-1.1,0.2-2.1,0.2-3.2,0.2c-2.6,0-4.7-0.2-6.3-0.7c-1.6-0.5-2.8-1.2-3.7-2.2c-0.9-1-1.5-2.2-1.8-3.6
			c-0.3-1.4-0.5-3.1-0.6-5V67.7h-7.5v-7.5L303.3,60.3z M336.7,60.3h9.4v6.1h0.2c1.4-2.6,3.3-4.5,5.8-5.6c2.5-1.2,5.1-1.7,8.1-1.7
			c3.6,0,6.6,0.6,9.3,1.9c2.6,1.2,4.8,2.9,6.5,5.1c1.7,2.2,3.1,4.7,3.9,7.6c0.8,2.9,1.3,6,1.3,9.3c0,3.1-0.4,6-1.2,8.8
			c-0.8,2.8-2,5.4-3.6,7.5s-3.6,3.9-6,5.2c-2.5,1.3-5.3,2-8.6,2c-1.4,0-2.9-0.2-4.3-0.4c-1.4-0.2-2.8-0.7-4.1-1.2
			c-1.3-0.6-2.6-1.3-3.6-2.2c-1.2-0.9-2.1-2-2.8-3.1h-0.2v22.4h-9.9L336.7,60.3L336.7,60.3z M371.4,82.8c0-2-0.2-4-0.8-5.9
			c-0.5-1.9-1.3-3.6-2.4-5s-2.4-2.6-3.9-3.6c-1.6-0.9-3.4-1.3-5.4-1.3c-4.1,0-7.3,1.4-9.4,4.3c-2.1,2.9-3.1,6.8-3.1,11.6
			c0,2.3,0.2,4.4,0.8,6.3c0.6,1.9,1.3,3.6,2.5,5c1.1,1.4,2.4,2.5,4,3.3c1.6,0.8,3.3,1.2,5.4,1.2c2.3,0,4.1-0.5,5.7-1.4
			c1.6-0.9,2.8-2.2,3.9-3.6c1-1.5,1.7-3.1,2.2-5C371.1,86.7,371.4,84.8,371.4,82.8z M388.8,43.2h9.9v9.4h-9.9V43.2z M388.8,60.3h9.9
			v44.9h-9.9V60.3z M407.6,43.2h9.9v62.1h-9.9L407.6,43.2z M447.8,106.5c-3.6,0-6.8-0.6-9.6-1.8s-5.1-2.8-7.1-4.9
			c-1.9-2.1-3.4-4.6-4.4-7.5c-1-2.9-1.6-6.1-1.6-9.5s0.5-6.5,1.6-9.4c1-2.9,2.5-5.4,4.4-7.5c1.9-2.1,4.3-3.7,7.1-4.9s6-1.8,9.6-1.8
			c3.6,0,6.8,0.6,9.6,1.8c2.8,1.2,5.1,2.8,7.1,4.9c1.9,2.1,3.4,4.6,4.4,7.5c1,2.9,1.6,6,1.6,9.4c0,3.5-0.5,6.6-1.6,9.5
			c-1.1,2.9-2.5,5.4-4.4,7.5c-1.9,2.1-4.3,3.7-7.1,4.9S451.5,106.5,447.8,106.5z M447.8,98.7c2.2,0,4.1-0.5,5.7-1.4
			c1.7-0.9,2.9-2.2,4-3.6c1.1-1.5,1.8-3.2,2.3-5c0.5-1.9,0.7-3.8,0.7-5.8c0-1.9-0.2-3.8-0.7-5.7s-1.2-3.6-2.3-5
			c-1.1-1.5-2.4-2.6-4-3.6c-1.7-0.9-3.6-1.4-5.7-1.4s-4.1,0.5-5.7,1.4c-1.7,0.9-2.9,2.2-4,3.6c-1.1,1.5-1.8,3.1-2.3,5
			c-0.5,1.9-0.7,3.8-0.7,5.7c0,2,0.2,3.9,0.7,5.8c0.5,1.9,1.2,3.6,2.3,5s2.4,2.7,4,3.6C443.8,98.2,445.7,98.7,447.8,98.7z
			 M473.5,60.3h7.5V46.8h9.9v13.5h8.9v7.4H491v24c0,1.1,0.1,1.9,0.2,2.7c0.1,0.7,0.3,1.4,0.6,1.9c0.3,0.5,0.8,0.9,1.4,1.2
			c0.7,0.2,1.5,0.4,2.6,0.4c0.7,0,1.4,0,2.1-0.1c0.7-0.1,1.4-0.2,2.1-0.3v7.7c-1.1,0.2-2.2,0.2-3.2,0.3c-1.1,0.2-2.1,0.2-3.2,0.2
			c-2.6,0-4.7-0.2-6.3-0.7c-1.6-0.5-2.8-1.2-3.7-2.2c-0.9-1-1.5-2.2-1.8-3.6c-0.3-1.4-0.5-3.1-0.6-5V67.7h-7.5v-7.5V60.3z"/>
		<path class="st1" d="M122.2,43.2H76.8L62.8,0L48.7,43.2L3.3,43.1L40,69.9L26,113.1l36.7-26.7l36.7,26.7l-14-43.2L122.2,43.2z"/>
		<g>
			<g>
				<path class="st1" d="M0.5,147h157.7v157.7H0.5V147z M171.3,147H329v157.7H171.3V147z M342.1,147h157.7v157.7H342.1V147z
					 M512.9,147h157.7v157.7H512.9V147z M683.7,147h157.7v157.7H683.7V147z"/>
			</g>
			<path class="st0" d="M79.3,253.3l24-6.1l10,30.9L79.3,253.3z M134.5,213.3H92.3l-13-39.7l-13,39.7H24.1L58.3,238l-13,39.7
				l34.2-24.6l21-15.1L134.5,213.3z M250.1,253.3l24-6.1l10,30.9L250.1,253.3z M305.3,213.3h-42.2l-13-39.7l-13,39.7h-42.2
				l34.2,24.6l-13,39.7l34.2-24.6l21-15.1L305.3,213.3z M421,253.3l24-6.1l10,30.9L421,253.3z M476.1,213.3h-42.2l-13-39.7l-13,39.7
				h-42.2l34.2,24.6l-13,39.7l34.2-24.6l21-15.1L476.1,213.3z M591.8,253.3l24-6.1l10,30.9L591.8,253.3z M647,213.3h-42.2l-13-39.7
				l-13,39.7h-42.2l34.2,24.6l-13,39.7l34.2-24.6l21-15.1L647,213.3z M762.6,253.3l24-6.1l10,30.9L762.6,253.3z M817.8,213.3h-42.2
				l-13-39.7l-13,39.7h-42.2l34.2,24.6l-13,39.7l34.2-24.6l21-15.1L817.8,213.3z"/>
		</g>
	</g>
</g>
</svg>
